<svg width="161" height="124" viewBox="0 0 161 124" fill="none" xmlns="http://www.w3.org/2000/svg">
<path d="M37.104 75.9386C37.5706 75.3764 37.8101 74.6968 37.8224 73.8998C37.8277 73.5582 37.7753 73.2443 37.6653 72.9579C37.5562 72.6146 37.4184 72.2708 37.252 71.9266C36.6403 70.7784 35.7974 69.7691 34.7235 68.8985C33.7068 68.0288 32.5734 67.2997 31.3234 66.7111C30.1315 66.0664 28.8806 65.5348 27.5707 65.1161C26.2617 64.6405 25.0086 64.2512 23.8114 63.9481C23.9435 62.8113 24.1055 61.5896 24.2975 60.2829C24.4894 58.9763 24.5942 57.7537 24.6119 56.6152C24.6251 55.7613 24.2629 55.1294 23.5252 54.7195C22.7884 54.2526 22.0195 54.0131 21.2184 54.0008C19.2157 53.9701 17.9432 54.8331 17.4008 56.5899C17.0372 57.894 16.759 59.2278 16.5662 60.5914C16.3742 61.8981 16.1537 63.2043 15.9045 64.5101C13.9 64.5932 11.9765 64.9907 10.134 65.7027C8.34962 66.3586 6.73291 67.2733 5.28388 68.4468C3.89208 69.6212 2.75379 71.0557 1.86902 72.7503C1.04235 74.3889 0.613133 76.2329 0.581366 78.2822C0.545187 80.6162 1.05701 82.6739 2.11683 84.4553C3.23387 86.2375 4.61149 87.8245 6.24969 89.2162C7.94599 90.5519 9.78754 91.7474 11.7744 92.8028C13.762 93.8013 15.6657 94.6846 17.4852 95.4527C17.9403 95.6305 18.5658 95.8963 19.3616 96.2502C20.1582 96.5471 20.9254 96.9005 21.6631 97.3104C22.458 97.7212 23.1376 98.1871 23.7018 98.7082C24.2661 99.2294 24.5434 99.803 24.5337 100.429C24.5231 101.112 24.2854 101.678 23.8205 102.126C23.3566 102.518 22.8077 102.851 22.1739 103.126C21.5409 103.344 20.8803 103.505 20.1919 103.608C19.5043 103.655 18.9317 103.674 18.474 103.667C17.2151 103.648 15.9875 103.458 14.7912 103.098C13.6521 102.739 12.5135 102.352 11.3752 101.936C10.2942 101.52 9.21279 101.134 8.13091 100.775C7.10625 100.418 6.05033 100.231 4.96315 100.214C3.70431 100.195 2.5533 100.604 1.51011 101.443C0.524134 102.281 0.0209991 103.356 0.000703348 104.665C-0.0213572 106.088 0.475531 107.263 1.49137 108.19C2.50721 109.116 3.72552 109.904 5.14631 110.552C6.6252 111.144 8.16308 111.623 9.75994 111.989C11.3568 112.355 12.6966 112.689 13.7794 112.99C13.9502 113.05 14.0897 113.28 14.1979 113.68C14.3062 114.08 14.385 114.537 14.4342 115.05C14.4835 115.563 14.5046 116.048 14.4976 116.503L14.483 117.442C14.476 117.898 14.4403 118.353 14.376 118.807L14.3562 120.088C14.3385 121.227 14.7821 122.144 15.6871 122.842C16.6483 123.597 17.6726 123.982 18.7597 123.999C19.9614 124.018 20.8813 123.747 21.5195 123.187C22.1569 122.685 22.6248 122.037 22.9232 121.244C23.2217 120.452 23.378 119.6 23.3921 118.689C23.4643 117.723 23.5066 116.841 23.519 116.044L23.5521 113.909C23.619 113.284 23.7959 112.945 24.0829 112.892L28.7362 111.768C30.2882 111.336 31.6708 110.759 32.8839 110.038C34.0978 109.259 35.0865 108.25 35.8497 107.009C36.613 105.768 37.011 104.094 37.0436 101.988C37.0816 99.5398 36.5134 97.4244 35.3391 95.6412C34.1658 93.8011 32.6741 92.1839 30.8643 90.7896C29.0544 89.3953 27.0989 88.1695 24.9976 87.1124C22.9545 85.9992 21.024 85.0016 19.2062 84.1196C17.3893 83.1807 15.8862 82.3035 14.6969 81.4881C13.5086 80.6158 12.9223 79.6673 12.9382 78.6426C12.9488 77.9595 13.1579 77.3933 13.5655 76.944C14.0303 76.4956 14.5796 76.134 15.2135 75.859C15.8473 75.584 16.5084 75.3949 17.1968 75.2915C17.9424 75.1891 18.5727 75.1418 19.0877 75.1497C20.4038 75.1699 21.6027 75.3591 22.6846 75.7174C23.7674 76.0187 24.7639 76.3472 25.6741 76.7028C26.6415 77.0592 27.5804 77.4153 28.4906 77.7709C29.4017 78.0696 30.3436 78.2264 31.3164 78.2413C31.9458 78.2509 32.6337 78.1761 33.3802 78.0167C34.1267 77.8574 34.8173 77.6117 35.4521 77.2798C36.1449 76.8919 36.6955 76.4448 37.104 75.9386Z" fill="black"/>
<path d="M72.2522 79.1706C72.2522 80.0296 72.1386 80.9337 71.9114 81.8831C71.7296 82.8325 71.4115 83.7141 70.9571 84.5278C70.5027 85.3416 69.9119 86.0197 69.1849 86.5622C68.4578 87.1047 67.5717 87.376 66.5265 87.376C64.9361 87.376 63.7546 87.1047 62.9821 86.5622C62.2096 85.9745 61.6642 85.2512 61.3462 84.3922C61.0281 83.5332 60.8463 82.6291 60.8009 81.6797C60.8009 80.6851 60.7781 79.7583 60.7327 78.8994C60.6873 78.0404 60.5282 77.3397 60.2556 76.7972C60.0283 76.2094 59.5058 75.9156 58.6878 75.9156C57.779 75.9156 56.9837 76.2546 56.3021 76.9328C55.6205 77.5657 55.0298 78.4021 54.5299 79.4419C54.03 80.4817 53.5983 81.6571 53.2348 82.9681C52.9167 84.2792 52.6441 85.5902 52.4168 86.9013C52.2351 88.1671 52.0988 89.3878 52.0079 90.5632C51.917 91.6934 51.8715 92.6202 51.8715 93.3435C51.8715 94.2929 51.8943 95.4231 51.9397 96.7342C52.0306 98.0452 52.2578 99.3111 52.6213 100.532C52.9849 101.707 53.5302 102.724 54.2572 103.583C54.9843 104.397 56.0295 104.804 57.3927 104.804C58.3016 104.804 59.1877 104.691 60.0511 104.465C60.9145 104.239 61.7779 103.99 62.6413 103.719C63.5046 103.402 64.368 103.131 65.2314 102.905C66.1403 102.679 67.0491 102.566 67.9579 102.566C69.0031 102.566 69.8665 102.996 70.5481 103.855C71.2298 104.668 71.5706 105.595 71.5706 106.635C71.5706 108.082 71.1161 109.438 70.2073 110.704C69.2985 111.924 68.1624 113.009 66.7992 113.959C65.4814 114.908 64.0272 115.654 62.4368 116.197C60.8917 116.739 59.483 117.01 58.2107 117.01C54.9389 117.01 52.1669 116.264 49.8948 114.772C47.6227 113.326 45.7823 111.45 44.3736 109.144C42.965 106.793 41.9425 104.194 41.3063 101.345C40.7156 98.4521 40.4202 95.5814 40.4202 92.7332C40.4202 90.8345 40.602 88.7549 40.9655 86.4944C41.3291 84.234 41.8744 81.9735 42.6014 79.7131C43.3285 77.4075 44.2373 75.1922 45.3279 73.0674C46.464 70.9426 47.7818 69.0665 49.2814 67.4389C50.7809 65.8114 52.4623 64.5004 54.3254 63.5058C56.234 62.5112 58.3243 62.0139 60.5964 62.0139C62.823 62.0139 64.6861 62.579 66.1857 63.7092C67.6853 64.7942 68.8895 66.1957 69.7983 67.9136C70.7072 69.5864 71.3434 71.4399 71.7069 73.4743C72.0704 75.4635 72.2522 77.3623 72.2522 79.1706Z" fill="black"/>
<path fill-rule="evenodd" clip-rule="evenodd" d="M109.401 103.651C109.401 104.555 109.31 105.64 109.128 106.906C108.992 108.172 108.697 109.393 108.242 110.568C107.788 111.698 107.174 112.67 106.402 113.484C105.629 114.253 104.607 114.637 103.334 114.637C101.653 114.637 100.381 114.027 99.5173 112.806C98.6993 111.585 98.1086 110.139 97.745 108.466C97.3815 106.748 97.1543 105.007 97.0634 103.244C97.018 101.481 96.9725 100.08 96.9271 99.0398C93.6553 99.5823 90.4289 100.057 87.248 100.464C87.1571 101.504 86.9526 102.792 86.6345 104.329C86.3619 105.866 85.9074 107.358 85.2713 108.805C84.6805 110.206 83.8853 111.427 82.8856 112.467C81.9313 113.507 80.7498 114.027 79.3411 114.027C78.2505 114.027 77.3871 113.642 76.7509 112.874C76.1602 112.06 75.7058 111.111 75.3877 110.026C75.0696 108.941 74.8651 107.833 74.7742 106.703C74.7288 105.527 74.706 104.555 74.706 103.787C74.706 101.21 74.9105 98.6782 75.3195 96.1917C75.7285 93.66 76.2056 91.1509 76.7509 88.6644C77.0236 87.3534 77.3871 85.8163 77.8415 84.0532C78.2959 82.29 78.8412 80.4817 79.4774 78.6281C80.1591 76.7293 80.9316 74.8758 81.795 73.0674C82.7038 71.2139 83.7262 69.5638 84.8623 68.1171C85.9983 66.6704 87.2934 65.495 88.7476 64.5908C90.2017 63.6866 91.8149 63.2345 93.5871 63.2345C95.3139 63.2345 96.8135 63.6188 98.0859 64.3874C99.3582 65.1559 100.472 66.1731 101.426 67.4389C102.38 68.7048 103.175 70.1515 103.812 71.779C104.448 73.3613 104.97 74.9888 105.379 76.6615C105.834 78.289 106.197 79.8939 106.47 81.4763C106.788 83.0586 107.061 84.46 107.288 85.6807C107.879 88.6192 108.378 91.603 108.787 94.632C109.196 97.6158 109.401 100.622 109.401 103.651ZM96.2455 87.1726C96.2455 86.63 96.2 85.7485 96.1091 84.5278C96.0637 83.262 95.9274 82.0188 95.7002 80.7981C95.473 79.5323 95.1094 78.4247 94.6096 77.4753C94.1551 76.4807 93.519 75.9834 92.701 75.9834C92.2466 75.9834 91.8149 76.2999 91.4059 76.9328C90.9969 77.5205 90.6334 78.289 90.3153 79.2384C89.9972 80.1426 89.7018 81.1598 89.4292 82.29C89.202 83.4202 88.9975 84.5052 88.8157 85.545C88.634 86.5848 88.4976 87.5342 88.4068 88.3932C88.3159 89.2069 88.2477 89.7947 88.2023 90.1563C90.9288 89.9303 93.6098 89.5912 96.2455 89.1391V87.1726Z" fill="black"/>
<path d="M159.841 109.754C160.114 108.624 160.318 107.471 160.455 106.296C160.591 105.075 160.705 103.855 160.796 102.634C160.886 101.413 160.932 100.26 160.932 99.1755C160.977 98.0905 161 97.1185 161 96.2595V94.2251C161 93.0045 160.955 91.3996 160.864 89.4104C160.818 87.4212 160.659 85.2964 160.387 83.036C160.159 80.7303 159.819 78.4247 159.364 76.119C158.91 73.7682 158.296 71.666 157.524 69.8124C156.751 67.9136 155.797 66.3765 154.661 65.2011C153.525 64.0257 152.162 63.438 150.571 63.438C149.662 63.438 148.753 63.8222 147.845 64.5908C146.981 65.3141 146.118 66.2861 145.254 67.5068C144.391 68.6822 143.55 70.0384 142.732 71.5755C141.96 73.0674 141.233 74.6045 140.551 76.1868C139.915 77.7239 139.324 79.2158 138.779 80.6625C138.234 82.1092 137.779 83.375 137.416 84.46C137.098 83.4654 136.689 82.2674 136.189 80.8659C135.689 79.4193 135.098 77.9274 134.417 76.3903C133.78 74.808 133.099 73.2483 132.372 71.7112C131.645 70.1741 130.895 68.7952 130.122 67.5746C129.35 66.3087 128.577 65.2915 127.805 64.523C127.032 63.7544 126.305 63.3702 125.624 63.3702C124.169 63.3702 122.874 63.9353 121.738 65.0655C120.648 66.1957 119.671 67.665 118.807 69.4733C117.989 71.2365 117.285 73.2483 116.694 75.5087C116.104 77.7691 115.626 80.0296 115.263 82.29C114.899 84.5504 114.627 86.7205 114.445 88.8001C114.309 90.8345 114.24 92.5298 114.24 93.8861V96.8698C114.286 98.0905 114.377 99.4241 114.513 100.871C114.649 102.272 114.831 103.719 115.058 105.211C115.286 106.703 115.604 108.104 116.013 109.415C116.422 110.726 116.921 111.879 117.512 112.874C118.148 113.823 118.921 114.501 119.83 114.908C120.966 114.818 121.92 114.185 122.693 113.009C123.465 111.834 124.101 110.387 124.601 108.669C125.146 106.951 125.555 105.098 125.828 103.109C126.101 101.074 126.305 99.1755 126.442 97.4123C126.578 95.6492 126.646 94.1347 126.646 92.8689C126.691 91.603 126.714 90.8571 126.714 90.631V88.1897C126.76 87.0143 126.782 85.9519 126.782 85.0025C127.01 86.2684 127.328 87.8507 127.737 89.7495C128.146 91.603 128.623 93.5922 129.168 95.717C129.713 97.7966 130.304 99.8762 130.94 101.956C131.576 104.035 132.258 105.934 132.985 107.652C133.712 109.325 134.462 110.681 135.235 111.721C136.007 112.761 136.78 113.281 137.552 113.281C138.415 113.281 139.233 112.783 140.006 111.789C140.778 110.794 141.505 109.483 142.187 107.856C142.869 106.183 143.505 104.307 144.096 102.227C144.686 100.102 145.232 97.9548 145.732 95.7848C146.231 93.5696 146.663 91.3996 147.027 89.2748C147.39 87.1499 147.708 85.2286 147.981 83.5106C148.117 85.1834 148.299 87.1499 148.526 89.4104C148.753 91.6708 149.026 93.9991 149.344 96.3951C149.708 98.746 150.094 101.074 150.503 103.38C150.957 105.686 151.435 107.765 151.934 109.619C152.48 111.427 153.048 112.874 153.638 113.959C154.229 115.089 154.888 115.654 155.615 115.654C156.342 115.654 156.978 115.383 157.524 114.84C158.114 114.343 158.592 113.665 158.955 112.806C159.319 111.902 159.614 110.885 159.841 109.754Z" fill="black"/>
<path d="M80.0277 45.2809C81.9443 45.2809 83.498 43.7272 83.498 41.8107C83.498 39.8941 81.9443 38.3404 80.0277 38.3404C78.1112 38.3404 76.5575 39.8941 76.5575 41.8107C76.5575 43.7272 78.1112 45.2809 80.0277 45.2809Z" fill="black"/>
<path d="M111.302 30.7458C109.182 26.3772 107.484 23.0575 106.135 20.6489C107.282 18.7357 108.171 16.6925 108.784 14.5622C109.122 13.3969 111.962 3.10341 107.532 0.477852C106.29 -0.270794 105.04 -0.00990304 103.127 0.390887C101.055 0.831756 99.2523 1.58721 96.2342 3.2796C95.0825 3.92692 93.9838 4.59314 92.8926 5.27977C89.175 3.20171 84.7421 2.14302 80.2571 2.12638C80.1815 2.11731 80.1073 2.1037 80.0295 2.1037C79.9039 2.1037 79.7822 2.11731 79.6635 2.14075C75.3016 2.21335 70.9345 3.26221 67.1724 5.28582C66.0782 4.59692 64.9764 3.92918 63.8194 3.27885C60.8036 1.58796 59.0008 0.832513 56.9069 0.387107C55.0156 -0.00839004 53.7671 -0.270794 52.5352 0.471046C48.0933 3.10341 50.9336 13.3977 51.2701 14.5577C51.8841 16.6917 52.7727 18.7357 53.9199 20.6497C52.5715 23.0582 50.8731 26.378 48.7504 30.7519C47.6789 32.9789 46.9363 35.5311 46.1997 38.0614C45.7354 39.657 46.0916 41.3713 47.1541 42.6463C48.2226 43.9288 49.859 44.5981 51.5204 44.4234C53.3406 44.2373 55.4421 44.102 58.4745 44.3553L60.086 44.4876C63.6908 44.7811 64.894 44.8794 68.126 45.504C69.5552 46.7079 71.4541 48.1386 73.8732 49.2124C74.6248 49.5437 75.3584 49.8325 76.051 50.0722C77.3336 50.5146 78.6804 50.7362 80.0272 50.7362C81.374 50.7362 82.7208 50.5146 84.0018 50.0722C84.6953 49.8333 85.4288 49.5437 86.1857 49.2102C88.5996 48.1386 90.4984 46.7071 91.9276 45.504C95.1589 44.8794 96.3628 44.7811 99.9676 44.4876L101.581 44.3553C104.613 44.1012 106.715 44.2381 108.533 44.4234C110.199 44.5935 111.831 43.9288 112.9 42.6463C113.962 41.3706 114.318 39.657 113.836 37.9986C113.119 35.5319 112.376 32.9797 111.302 30.7458ZM68.5752 30.1567C68.5752 28.9324 69.5673 27.9403 70.7916 27.9403C72.0159 27.9403 73.0081 28.9324 73.0081 30.1567C73.0081 31.381 72.0159 32.3732 70.7916 32.3732C69.5681 32.3732 68.5752 31.381 68.5752 30.1567ZM89.2643 32.3732C88.04 32.3732 87.0478 31.381 87.0478 30.1567C87.0478 28.9324 88.04 27.9403 89.2643 27.9403C90.4886 27.9403 91.4807 28.9324 91.4807 30.1567C91.4807 31.381 90.4878 32.3732 89.2643 32.3732ZM109.996 40.2272C109.869 40.3777 109.51 40.7278 108.918 40.662C107.955 40.5637 106.863 40.4744 105.588 40.4465C105.484 40.234 105.381 40.0238 105.273 39.8014C103.876 36.9195 102.136 33.3328 98.9135 30.0842C95.2383 26.3795 92.4169 24.7854 89.9161 23.6148C89.4178 23.3819 88.8869 23.2639 88.3402 23.2639C86.8845 23.2639 85.5468 24.1192 84.932 25.4425L82.5272 30.6294C81.7022 32.4102 82.3888 34.5397 84.0903 35.4789C85.7313 36.3841 86.973 37.2984 87.8865 38.2739C89.0888 39.5579 89.8518 40.8647 90.3888 41.9975C90.1937 42.0746 90.0076 42.1721 89.8473 42.3098C88.4982 43.4713 86.8263 44.7886 84.659 45.7513C84.0018 46.0409 83.3674 46.292 82.7707 46.4969C80.977 47.1177 79.0812 47.1162 77.2874 46.4969C76.6923 46.292 76.0571 46.0401 75.4052 45.7535C73.2327 44.7894 71.5607 43.4713 70.2116 42.3098C70.1012 42.2145 69.9772 42.1381 69.8494 42.0716C70.2683 40.9493 70.8393 39.6986 72.1732 38.2739C73.086 37.2984 74.3277 36.3841 75.9679 35.4789C77.6701 34.5405 78.3567 32.4102 77.5317 30.6286L75.2192 25.6407C74.6014 24.3082 73.3279 23.3199 71.8609 23.2662C71.2643 23.2443 70.685 23.3607 70.1436 23.614C67.6428 24.7846 64.8214 26.378 61.1462 30.0834C57.924 33.3321 56.1839 36.9188 54.7865 39.8007C54.6783 40.023 54.5755 40.2332 54.4719 40.4457C53.1969 40.4737 52.105 40.5629 51.1416 40.6612C50.5494 40.7255 50.1902 40.3769 50.064 40.2264C49.9112 40.0427 49.6783 39.6547 49.853 39.0558C50.5283 36.7358 51.2262 34.3363 52.1594 32.3966C54.5483 27.4737 56.3806 23.9264 57.7622 21.5503C58.1236 20.9287 58.1009 20.1551 57.7039 19.5555C56.4637 17.6831 55.523 15.6504 54.9075 13.5073C53.4994 8.65927 53.7278 4.47214 54.4001 3.78021C54.7199 3.79004 55.4693 3.94733 56.1469 4.08875C57.5678 4.39047 58.9774 4.89486 61.9727 6.5744C63.3982 7.37674 64.7442 8.19042 66.0872 9.06384C66.1311 9.09257 66.178 9.10921 66.2234 9.13416C66.271 9.15988 66.3171 9.18634 66.3663 9.20752C66.4366 9.23777 66.5077 9.26045 66.5795 9.28238C66.6226 9.29524 66.665 9.30885 66.7089 9.31868C66.786 9.33607 66.8631 9.3459 66.9418 9.35271C66.9841 9.35649 67.0265 9.36178 67.0688 9.36254C67.1475 9.36481 67.2253 9.35952 67.3032 9.3512C67.3463 9.34666 67.3894 9.34363 67.4333 9.33607C67.5127 9.32246 67.5906 9.30129 67.6677 9.27784C67.707 9.26575 67.7464 9.25591 67.7849 9.24079C67.8681 9.20903 67.9475 9.16971 68.0262 9.1266C68.0496 9.11375 68.0738 9.10694 68.0972 9.09333C71.0812 7.28751 74.5855 6.25074 78.1442 5.96414V10.3396C78.1442 11.3839 78.9904 12.2301 80.0348 12.2301C81.0791 12.2301 81.9253 11.3839 81.9253 10.3396V5.9407C82.528 5.9838 83.1261 6.05262 83.7198 6.13958V7.83349C83.7198 8.87781 84.566 9.72401 85.6103 9.72401C86.6546 9.72401 87.5008 8.87781 87.5008 7.83349V7.02208C89.0775 7.53857 90.5755 8.22067 91.9337 9.08804C91.9995 9.12963 92.0721 9.14853 92.1401 9.18105C92.1779 9.1992 92.2158 9.21735 92.2551 9.23247C92.4812 9.32322 92.7141 9.38447 92.9493 9.38447C93.3281 9.38447 93.6956 9.25743 94.0117 9.04191C95.3442 8.17681 96.6796 7.36842 98.0907 6.57516C101.088 4.89411 102.497 4.38972 103.929 4.08572C104.6 3.94507 105.352 3.78702 105.669 3.77946C106.336 4.44492 106.57 8.64339 105.156 13.5119C104.541 15.6497 103.601 17.6831 102.361 19.5547C101.964 20.1544 101.941 20.9272 102.303 21.5496C103.684 23.9256 105.517 27.473 107.903 32.3898C108.839 34.3348 109.537 36.7342 110.23 39.1171C110.381 39.6555 110.148 40.0427 109.996 40.2272Z" fill="black"/>
<path d="M103.563 6.9087C103.518 6.74536 103.407 6.60697 103.257 6.52757C103.106 6.44817 102.932 6.43531 102.769 6.48749C99.8851 7.4577 97.1204 9.04272 95.3872 10.8296C95.1724 11.0512 95.1527 11.3968 95.3418 11.641L99.7717 17.2627C99.8896 17.4147 100.071 17.5032 100.262 17.5032C100.267 17.5032 100.272 17.5032 100.276 17.5032C100.472 17.4986 100.655 17.4018 100.769 17.2415C101.469 16.2539 102.449 14.5328 102.934 12.9569C103.772 10.23 103.854 7.95529 103.563 6.9087Z" fill="black"/>
<path d="M56.9622 6.48747C56.7989 6.43454 56.625 6.44815 56.4737 6.52755C56.3233 6.60771 56.2128 6.74534 56.1675 6.90868C55.8763 7.95452 55.9588 10.2299 56.7982 12.9568C57.2836 14.532 58.2637 16.2539 58.9632 17.2415C59.0774 17.4018 59.2596 17.4986 59.4562 17.5032C59.4608 17.5032 59.4653 17.5032 59.4698 17.5032C59.6612 17.5032 59.8419 17.4147 59.9606 17.2627L64.3905 11.641C64.5795 11.3968 64.5599 11.0512 64.3451 10.8296C62.6104 9.0427 59.8457 7.45769 56.9622 6.48747Z" fill="black"/>
</svg>
